<?xml version="1.0" encoding="utf-8"?>
<!-- Generator: Adobe Illustrator 22.1.0, SVG Export Plug-In . SVG Version: 6.00 Build 0)  -->
<svg version="1.1" id="Layer_1" xmlns="http://www.w3.org/2000/svg" xmlns:xlink="http://www.w3.org/1999/xlink" x="0px" y="0px"
	 viewBox="0 0 30 30" style="enable-background:new 0 0 30 30;" xml:space="preserve">
<style type="text/css">
	.st0{fill:#FFFFFF;}
</style>
<g>
	<path class="st0" d="M20.3,7.6L7.6,20.3c-0.6,0.6-0.6,1.5,0,2.1c0.6,0.6,1.5,0.6,2.1,0L22.4,9.7c0.6-0.6,0.6-1.5,0-2.1
		C21.8,7,20.9,7,20.3,7.6z"/>
	<path class="st0" d="M22.4,20.3L9.7,7.6C9.1,7,8.2,7,7.6,7.6C7,8.2,7,9.1,7.6,9.7l12.7,12.7c0.6,0.6,1.5,0.6,2.1,0
		C23,21.8,23,20.9,22.4,20.3z"/>
</g>
</svg>
