<svg xmlns="http://www.w3.org/2000/svg" id="Layer_1" viewBox="0 0 868.4 998.7"><style>
.lite { fill: #1d3252 }
.dark { fill: #364c6b }
</style><path d="M0 626c2.6-8.7 5.3-17.4 7.9-26.1 7-23.7 18.1-45.3 32.7-65.2 14.2-19.5 27.9-39.4 42.8-58.3 12.6-15.9 26.4-30.8 40.3-45.6 26.1-27.8 52.6-55.1 78.8-82.8 16.3-17.1 32.8-34 48.4-51.7 10.6-12.1 20.2-25.2 29.5-38.4 11.8-16.7 23.4-33.6 34-51 14.9-24.5 24.6-51.2 31.5-79 8.1-32.4 12.9-65.2 10.9-98.8-.5-8-.2-16 0-24 0-1.8.8-3.5 1.2-5.3h7c19.7 21.6 37.5 44.6 51.9 70.2 8.3 14.6 13 30.4 18.1 46.2-1.6 6-3.7 12-4.8 18.2-5.5 29.8-6.3 59.6.3 89.4 1.7 7.6 3 15.2 4.4 22.9-6.4 14.5-12.6 29.2-19.3 43.6-3.5 7.6-8 14.8-12 22.2-13.1-19.2-22.8-40.2-30.6-62.1-5.4-15-9.8-30.3-14.6-45.5-.4-1.3-.9-2.6-1.4-3.9-1.2.9-2.7 1.5-3.4 2.6-9.1 15.1-20 29.4-26.6 45.5-11.1 26.7-19 54.4-22.9 83.4-3.3 24.7-4.7 48.9 2.9 73.1 2.8 9 5.4 18.1 8.1 27.2-15.4 16.8-30.8 33.5-46.2 50.3-8.3-11.3-13.4-24.3-16.4-37.6-2.4-10.4-1.8-21.5-2.7-32.2-.2-2-1-4-1.5-5.9-2.1 1.1-4.8 1.6-6.3 3.3-23.6 26.7-35 59.1-40.7 93.5-2.8 16.6-2.3 33.8-3.4 50.7-13.8 16.4-28.1 32.4-41.2 49.3-14.3 18.6-26.5 38.7-36.6 60-7.1 14.9-10.5 30.7-10.8 47.3-.2 7.5-1 14.9-1 22.4 0 9.7 2.7 18.6 9.6 26 1.3 1.4 2 3.5 3 5.2-2.3 1.3-4.6 3.5-7 3.7-17.8 1.6-34.7-2.3-51-9.4-11.2-4.8-22.4-9.7-30.7-19C15.5 721.9 6.4 700 3 675.5c-.8-5.3-2-10.4-3-15.5v-34z" class="lite"/><path d="M315.1 432.8c-2.7-9.1-5.3-18.2-8.1-27.2-7.5-24.1-6.2-48.3-2.9-73.1 3.9-29 11.9-56.8 22.9-83.4 6.7-16.1 17.6-30.4 26.6-45.5.7-1.1 2.3-1.8 3.4-2.6.5 1.3 1 2.6 1.4 3.9 4.8 15.2 9.2 30.5 14.6 45.5 7.8 21.8 17.4 42.8 30.6 62 1.1 1.8 2.2 3.7 3.5 5.4 8.6 11.9 17.3 23.7 25.9 35.6.8 1.4 1.3 3 2.3 4.2 31 37.6 62.1 75.1 93.2 112.6 1.7 2.1 4 3.8 6.1 5.7 12.4 13.4 24.9 26.9 37.3 40.3.6.9 1.1 2 1.9 2.8 25.1 26 48.5 53.4 70.3 82.1 4.5 5.9 9.5 11.4 14.2 17.1 11.2 16.4 22.8 32.4 33.3 49.2 7.5 11.9 13.5 24.8 19.9 37.4 5 10 10.2 19.9 13.7 30.4 3.8 11.5 7.1 23.5 8.1 35.4.8 9-1 18.7-3.9 27.4-4.3 13-9.3 26.2-16.4 38-18.9 31.6-46 52.5-83.2 58.7-6.7 1.1-13.5 1.8-20.3 2.2-7.3.5-9.2-2.5-7.2-9.4 3.4-11.5 3.3-23.4 2.4-35.2-.5-7-2-13.8-3.2-20.7-3.7-21.4-14.6-39.9-23.8-59.1-2.7-5.5-6.1-10.7-9.1-16-2.1-3.4-3.7-7.1-6.3-10-20.5-22.7-41.2-45.4-62-67.9-10.6-11.5-21.5-22.7-32.3-34.1-10.8-12.2-21.5-24.5-32.3-36.7-8.7-10.7-17-21.7-26-32.2-27.1-31.5-52.2-64.4-73.3-100.3-.4-.7-1.3-1.3-1.9-1.9-3.6-6.9-7.5-13.6-10.9-20.6-3.1-6.5-5.7-13.3-8.5-20z" class="dark"/><path d="M434.9 246.8c-1.5-7.6-2.7-15.3-4.4-22.9-6.7-29.8-5.8-59.6-.3-89.4 1.1-6.1 3.2-12.1 4.8-18.2.8-1.8 1.7-3.6 2.2-5.5 6.4-24.5 18-46.5 33.2-66.6 9.4-12.5 19.2-24.7 28.9-37 .8-1 1.6-2.4 2.7-2.8 1.9-.7 4.2-1.4 6-1 .9.2 1.7 2.9 1.7 4.5-.1 12.7-.6 25.3-.7 38-.3 29.9 5.4 58.9 12.8 87.7 12.5 48.3 37.5 89.9 67 129.5 21.7 29.2 46.8 55 71.7 81.2 29.8 31.4 60.2 62.2 90 93.7 26.9 28.5 50.7 59.6 73.3 91.6 10.7 15.1 20.6 30.6 28.4 47.5 14.8 32.4 19.8 65.8 13.3 101.2-3.4 18.6-10 35.5-20.1 51.2-10.2 15.7-25.9 23.8-42.8 30.3-14.2 5.4-28.6 8.8-43.9 7.8-1.5-.1-3.1-.1-4.4-.7-2.7-1.2-4-2.8-1-5.5 7.4-6.5 10.7-15.2 10.4-24.5-.5-16.3-.8-32.8-4-48.6-2.5-12.7-7.9-25.1-14-36.6-18-34.3-41.5-64.7-67.6-93.2-1.3-1.5-3-2.7-4.4-4-1-1.3-1.9-2.7-3-3.9-12.1-12-24.3-24.1-36.5-36.1L599.1 480c-14.5-15.9-28.9-31.7-43.4-47.6-.1-.4-.2-.7-.3-1.1-2.1-2.6-4.2-5.2-6.3-7.7-22.8-26.9-44.9-54.3-64.6-83.6-6.9-10.3-13.7-20.7-20.6-31.1-2.2-4.1-4.6-8.1-6.5-12.4-7.5-16.3-15-33-22.5-49.7zM197.8 554.8c1-16.9.6-34.1 3.4-50.7 5.8-34.3 17.1-66.7 40.7-93.5 1.5-1.7 4.2-2.2 6.3-3.3.5 2 1.4 3.9 1.5 5.9.9 10.8.3 21.8 2.7 32.2 3.1 13.4 8.2 26.3 16.4 37.6 6.5 12.8 15.9 23.4 25.7 33.7 2.1 2.7 4 5.6 6.2 8.2 30 36.6 60.1 73.3 90.2 109.9 3.4 4.2 7.2 8.1 10.8 12.1 10.7 12.7 21.3 25.4 32 38.1 4.4 5.4 8.4 11.1 13.2 16.1 16.9 17.7 32.9 36.1 45.8 57 10.1 16.3 19.4 33.2 29 49.8 2.8 7.5 5.7 14.9 8.2 22.5 6.6 19.8 8.5 40.2 7.5 61.1-.6 14-2.8 27.3-7.6 40.5-6.3 17.3-16.8 31.4-31.1 42.6-18.6 14.6-39.8 23.3-63.7 24.1-1.6.1-3.2-.6-4.8-.9-5.4-3.9-5.1-3.4.4-6.9 2.8-1.8 4.2-5.8 6.2-8.7.6-1.7 1.4-3.4 1.8-5.1 2.4-9-.7-17.5-2.2-26.1-2.1-14.6-6.9-28.4-13.9-41.3-13.6-25-29.2-48.7-47.7-70.4-9.2-10.7-17.8-21.9-26.7-32.8-15.1-16.3-30.1-32.5-45.2-48.8-1.6-2.3-3.1-4.6-4.8-6.8-17-22.5-35-44.4-50.9-67.8-14.3-21-27.1-43-35.3-67.4-6.3-19.9-12.4-39.9-14.1-60.9z" class="dark"/><path d="M212.2 615.7c8.2 24.3 21 46.4 35.3 67.4 15.9 23.3 33.9 45.2 50.9 67.8 1.7 2.2 3.2 4.5 4.8 6.8-11.7 20-22.4 40.6-28.9 62.9-5.8 20-8.1 40.8-4.5 61.7.3 2 1 3.8 1.6 5.8 1.5 5.4-.8 9.3-6.4 9-9.8-.4-19.7-.8-29.2-2.7-15.8-3.1-30.6-9.2-43.4-19-22.6-17.3-39.4-38.9-48.2-66.4-3.7-11.6-8.9-23-7.8-35.3 1.1-11.7 2.6-23.8 6.8-34.6 8.3-21.1 17.7-42 28.5-61.9C181 659.7 193 643.6 204 627c2.5-3.9 5.4-7.5 8.2-11.3zM348.3 806.4c8.9 11 17.5 22.1 26.7 32.8 18.5 21.7 34.1 45.4 47.7 70.4 7 12.9 11.8 26.7 13.9 41.3-.7 3.7-1.6 7.4-2.2 11.1-1.1 6.9-.8 13.7 2.5 20.1-2 3-3.4 6.9-6.2 8.7-5.5 3.5-5.8 3-.4 6.9-14 .1-26.4-5.3-38.7-11.2-22.5-10.7-39.2-27.3-49.1-50-5.8-13.4-8.7-27.6-9.9-42.4-1.6-19.7.7-38.9 4.8-57.8 2.3-10.2 7.2-20 10.9-29.9zM521.8 808c-9.7-16.6-19-33.4-29-49.8-12.9-20.9-28.9-39.3-45.8-57-4.8-5-8.8-10.7-13.2-16.1 11.4-13.5 22.9-27 34.3-40.6 10.8 11.3 21.7 22.6 32.3 34.1 20.8 22.5 41.4 45.2 62 67.9 2.6 2.9 4.2 6.7 6.3 10-13 14.4-26 28.8-39.1 43.1-2.6 2.9-5.2 5.6-7.8 8.4zM599.2 480.3l35.1 34.5c12.2 12 24.3 24 36.5 36.1 1.2 1.2 2 2.6 3 3.9-2.5 21.9-8.9 42.8-15.5 63.6-4.8-5.7-9.7-11.2-14.2-17.1-21.9-28.7-45.3-56.1-70.3-82.1-.8-.8-1.3-1.9-1.9-2.8 9.9-11.5 20.5-22.4 27.3-36.1zM294.5 516.8c13.3-14.5 26.6-28.9 39.9-43.4.7.6 1.5 1.1 2 1.9 21.1 35.9 46.2 68.8 73.3 100.3 9 10.5 17.4 21.5 26 32.2-11.3 13.1-22.7 26.1-34 39.2-3.6-4-7.4-7.9-10.8-12.1-30.1-36.6-60.1-73.2-90.2-109.9-2.1-2.6-4.1-5.4-6.2-8.2zM433 353.5c11.9-13.6 22.2-28.4 31-44.2 6.9 10.4 13.6 20.8 20.6 31.1 19.7 29.3 41.8 56.7 64.6 83.6 2.2 2.5 4.2 5.1 6.3 7.7.1.4.2.7.3 1.1-7.1 14.4-14.1 28.8-21.2 43.2-2-1.9-4.3-3.5-6.1-5.7-31.1-37.5-62.2-75-93.2-112.6-.9-1.2-1.5-2.8-2.3-4.2z" class="lite"/></svg>