<?xml version="1.0" encoding="utf-8"?>
<!-- Generator: Adobe Illustrator 22.1.0, SVG Export Plug-In . SVG Version: 6.00 Build 0)  -->
<svg version="1.1" id="Layer_1" xmlns="http://www.w3.org/2000/svg" xmlns:xlink="http://www.w3.org/1999/xlink" x="0px" y="0px"
	 viewBox="0 0 30 30" style="enable-background:new 0 0 30 30;" xml:space="preserve">
<style type="text/css">
	.st0{fill:#FFFFFF;}
</style>
<path class="st0" d="M24.008,19.504H5.992c-0.829,0-1.501,0.673-1.501,1.501c0,0.829,0.673,1.501,1.501,1.501h18.016
	c0.829,0,1.501-0.673,1.501-1.501C25.509,20.177,24.837,19.504,24.008,19.504z M24.008,13.499H5.992
	c-0.829,0-1.501,0.673-1.501,1.501c0,0.829,0.673,1.501,1.501,1.501h18.016c0.829,0,1.501-0.673,1.501-1.501
	C25.509,14.171,24.837,13.499,24.008,13.499z M5.992,10.496h18.016c0.829,0,1.501-0.673,1.501-1.501
	c0-0.829-0.673-1.501-1.501-1.501H5.992c-0.829,0-1.501,0.673-1.501,1.501C4.491,9.823,5.163,10.496,5.992,10.496z"/>
</svg>
