<?xml version="1.0" encoding="utf-8"?>
<!-- Generator: Adobe Illustrator 22.1.0, SVG Export Plug-In . SVG Version: 6.00 Build 0)  -->
<svg version="1.1" id="Layer_1" xmlns="http://www.w3.org/2000/svg" xmlns:xlink="http://www.w3.org/1999/xlink" x="0px" y="0px"
	 viewBox="0 0 950 950" style="enable-background:new 0 0 950 950;" xml:space="preserve">
<style type="text/css">
	.st0{fill:#203C64;}
	.st1{opacity:0.25;}
	.st2{opacity:0.5;fill:#FBFBF6;enable-background:new    ;}
</style>
<rect x="-22.9" y="-25" class="st0" width="1000" height="1000"/>
<g class="st1">
	<path d="M127.1,576.5c2.1-7,4.2-13.9,6.3-20.9c5.6-19,14.5-36.3,26.2-52.2c11.4-15.6,22.4-31.6,34.3-46.7
		c10.1-12.7,21.2-24.7,32.3-36.5c20.9-22.3,42.1-44.2,63.1-66.3c13.1-13.7,26.3-27.2,38.8-41.4c8.5-9.7,16.2-20.2,23.6-30.8
		c9.5-13.4,18.8-26.9,27.2-40.9c11.9-19.6,19.7-41,25.2-63.3c6.5-26,10.3-52.2,8.7-79.2c-0.4-6.4-0.2-12.8,0-19.2
		c0-1.4,0.6-2.8,1-4.2c1.8,0,3.8,0,5.6,0c15.8,17.3,30,35.7,41.6,56.3c6.7,11.7,10.4,24.4,14.5,37c-1.3,4.8-3,9.6-3.8,14.6
		c-4.4,23.9-5,47.8,0.2,71.6c1.4,6.1,2.4,12.2,3.5,18.3c-5.1,11.6-10.1,23.4-15.5,34.9c-2.8,6.1-6.4,11.9-9.6,17.8
		C440,309.9,432.2,293,426,275.5c-4.3-12-7.9-24.3-11.7-36.5c-0.3-1-0.7-2.1-1.1-3.1c-1,0.7-2.2,1.2-2.7,2.1
		c-7.3,12.1-16,23.6-21.3,36.5c-8.9,21.4-15.2,43.6-18.3,66.8c-2.6,19.8-3.8,39.2,2.3,58.6c2.2,7.2,4.3,14.5,6.5,21.8
		c-12.3,13.5-24.7,26.8-37,40.3c-6.7-9.1-10.7-19.5-13.1-30.1c-1.9-8.3-1.4-17.2-2.2-25.8c-0.2-1.6-0.8-3.2-1.2-4.7
		c-1.7,0.9-3.8,1.3-5,2.6c-18.9,21.4-28,47.4-32.6,74.9c-2.2,13.3-1.8,27.1-2.7,40.6c-11.1,13.1-22.5,26-33,39.5
		c-11.5,14.9-21.2,31-29.3,48.1c-5.7,11.9-8.4,24.6-8.7,37.9c-0.2,6-0.8,11.9-0.8,17.9c0,7.8,2.2,14.9,7.7,20.8
		c1,1.1,1.6,2.8,2.4,4.2c-1.8,1-3.7,2.8-5.6,3c-14.3,1.3-27.8-1.8-40.9-7.5c-9-3.8-17.9-7.8-24.6-15.2c-13.4-14.8-20.7-32.4-23.4-52
		c-0.6-4.2-1.6-8.3-2.4-12.4C127.1,594.7,127.1,585.5,127.1,576.5z"/>
	<path class="st2" d="M379.6,421.7c-2.2-7.3-4.2-14.6-6.5-21.8c-6-19.3-5-38.7-2.3-58.6c3.1-23.2,9.5-45.5,18.3-66.8
		c5.4-12.9,14.1-24.4,21.3-36.5c0.6-0.9,1.8-1.4,2.7-2.1c0.4,1,0.8,2.1,1.1,3.1c3.8,12.2,7.4,24.4,11.7,36.5
		c6.3,17.5,13.9,34.3,24.5,49.7c0.9,1.4,1.8,3,2.8,4.3c6.9,9.5,13.9,19,20.8,28.5c0.6,1.1,1,2.4,1.8,3.4
		c24.8,30.1,49.8,60.2,74.7,90.2c1.4,1.7,3.2,3,4.9,4.6c9.9,10.7,20,21.6,29.9,32.3c0.5,0.7,0.9,1.6,1.5,2.2
		c20.1,20.8,38.9,42.8,56.3,65.8c3.6,4.7,7.6,9.1,11.4,13.7c9,13.1,18.3,26,26.7,39.4c6,9.5,10.8,19.9,15.9,30c4,8,8.2,15.9,11,24.4
		c3,9.2,5.7,18.8,6.5,28.4c0.6,7.2-0.8,15-3.1,22c-3.4,10.4-7.5,21-13.1,30.4c-15.1,25.3-36.9,42.1-66.7,47
		c-5.4,0.9-10.8,1.4-16.3,1.8c-5.8,0.4-7.4-2-5.8-7.5c2.7-9.2,2.6-18.8,1.9-28.2c-0.4-5.6-1.6-11.1-2.6-16.6
		c-3-17.1-11.7-32-19.1-47.4c-2.2-4.4-4.9-8.6-7.3-12.8c-1.7-2.7-3-5.7-5-8c-16.4-18.2-33-36.4-49.7-54.4
		c-8.5-9.2-17.2-18.2-25.9-27.3c-8.7-9.8-17.2-19.6-25.9-29.4c-7-8.6-13.6-17.4-20.8-25.8c-21.7-25.2-41.8-51.6-58.7-80.4
		c-0.3-0.6-1-1-1.5-1.5c-2.9-5.5-6-10.9-8.7-16.5C383.9,432.5,381.8,427,379.6,421.7z"/>
	<path class="st2" d="M475.6,272.6c-1.2-6.1-2.2-12.3-3.5-18.3c-5.4-23.9-4.6-47.8-0.2-71.6c0.9-4.9,2.6-9.7,3.8-14.6
		c0.6-1.4,1.4-2.9,1.8-4.4c5.1-19.6,14.4-37.3,26.6-53.4c7.5-10,15.4-19.8,23.2-29.6c0.6-0.8,1.3-1.9,2.2-2.2
		c1.5-0.6,3.4-1.1,4.8-0.8c0.7,0.2,1.4,2.3,1.4,3.6c-0.1,10.2-0.5,20.3-0.6,30.4c-0.2,24,4.3,47.2,10.3,70.3
		c10,38.7,30,72,53.7,103.8c17.4,23.4,37.5,44.1,57.5,65.1c23.9,25.2,48.2,49.8,72.1,75.1c21.6,22.8,40.6,47.8,58.7,73.4
		c8.6,12.1,16.5,24.5,22.8,38.1c11.9,26,15.9,52.7,10.7,81.1c-2.7,14.9-8,28.4-16.1,41c-8.2,12.6-20.8,19.1-34.3,24.3
		c-11.4,4.3-22.9,7.1-35.2,6.3c-1.2-0.1-2.5-0.1-3.5-0.6c-2.2-1-3.2-2.2-0.8-4.4c5.9-5.2,8.6-12.2,8.3-19.6
		c-0.4-13.1-0.6-26.3-3.2-38.9c-2-10.2-6.3-20.1-11.2-29.3c-14.4-27.5-33.3-51.8-54.2-74.7c-1-1.2-2.4-2.2-3.5-3.2
		c-0.8-1-1.5-2.2-2.4-3.1c-9.7-9.6-19.5-19.3-29.2-28.9c-9.4-9.2-18.8-18.4-28.1-27.6c-11.6-12.7-23.2-25.4-34.8-38.1
		c-0.1-0.3-0.2-0.6-0.2-0.9l0,0c-1.7-2.1-3.4-4.2-5-6.2c-18.3-21.6-36-43.5-51.8-67c-5.5-8.3-11-16.6-16.5-24.9
		c-1.8-3.3-3.7-6.5-5.2-9.9C487.6,299.4,481.6,286,475.6,272.6z"/>
	<path class="st2" d="M285.6,519.4c0.8-13.5,0.5-27.3,2.7-40.6c4.6-27.5,13.7-53.4,32.6-74.9c1.2-1.4,3.4-1.8,5-2.6
		c0.4,1.6,1.1,3.1,1.2,4.7c0.7,8.7,0.2,17.5,2.2,25.8c2.5,10.7,6.6,21.1,13.1,30.1c5.2,10.3,12.7,18.8,20.6,27
		c1.7,2.2,3.2,4.5,5,6.6c24,29.3,48.2,58.7,72.3,88.1c2.7,3.4,5.8,6.5,8.7,9.7c8.6,10.2,17.1,20.4,25.6,30.5
		c3.5,4.3,6.7,8.9,10.6,12.9c13.5,14.2,26.4,28.9,36.7,45.7c8.1,13.1,15.5,26.6,23.2,39.9c2.2,6,4.6,11.9,6.6,18
		c5.3,15.9,6.8,32.2,6,49c-0.5,11.2-2.2,21.9-6.1,32.5c-5,13.9-13.5,25.2-24.9,34.1c-14.9,11.7-31.9,18.7-51,19.3
		c-1.3,0.1-2.6-0.5-3.8-0.7c-4.3-3.1-4.1-2.7,0.3-5.5c2.2-1.4,3.4-4.6,5-7c0.5-1.4,1.1-2.7,1.4-4.1c1.9-7.2-0.6-14-1.8-20.9
		c-1.7-11.7-5.5-22.8-11.1-33.1c-10.9-20-23.4-39-38.2-56.4c-7.4-8.6-14.3-17.5-21.4-26.3c-12.1-13.1-24.1-26-36.2-39.1
		c-1.3-1.8-2.5-3.7-3.8-5.4c-13.6-18-28-35.6-40.8-54.3c-11.5-16.8-21.7-34.5-28.3-54C291.8,552.3,286.9,536.2,285.6,519.4z"/>
	<path d="M297.1,568.2c6.6,19.5,16.8,37.2,28.3,54c12.7,18.7,27.2,36.2,40.8,54.3c1.4,1.8,2.6,3.6,3.8,5.4
		c-9.4,16-17.9,32.5-23.2,50.4c-4.6,16-6.5,32.7-3.6,49.4c0.2,1.6,0.8,3,1.3,4.6c1.2,4.3-0.6,7.5-5.1,7.2
		c-7.9-0.3-15.8-0.6-23.4-2.2c-12.7-2.5-24.5-7.4-34.8-15.2c-18.1-13.9-31.6-31.2-38.6-53.2c-3-9.3-7.1-18.4-6.3-28.3
		c0.9-9.4,2.1-19.1,5.4-27.7c6.7-16.9,14.2-33.7,22.8-49.6c7.5-14,17.1-26.9,25.9-40.2C292.5,574.1,294.9,571.3,297.1,568.2z"/>
	<path d="M406.2,721c7.1,8.8,14,17.7,21.4,26.3c14.8,17.4,27.3,36.4,38.2,56.4c5.6,10.3,9.5,21.4,11.1,33.1c-0.6,3-1.3,5.9-1.8,8.9
		c-0.9,5.5-0.6,11,2,16.1c-1.6,2.4-2.7,5.5-5,7c-4.4,2.8-4.6,2.4-0.3,5.5c-11.2,0.1-21.2-4.2-31-9c-18-8.6-31.4-21.9-39.3-40.1
		c-4.6-10.7-7-22.1-7.9-34c-1.3-15.8,0.6-31.2,3.8-46.3C399.3,736.8,403.2,729,406.2,721z"/>
	<path d="M545.2,722.3c-7.8-13.3-15.2-26.8-23.2-39.9c-10.3-16.7-23.2-31.5-36.7-45.7c-3.8-4-7.1-8.6-10.6-12.9
		c9.1-10.8,18.3-21.6,27.5-32.5c8.7,9.1,17.4,18.1,25.9,27.3c16.7,18,33.2,36.2,49.7,54.4c2.1,2.3,3.4,5.4,5,8
		c-10.4,11.5-20.8,23.1-31.3,34.5C549.4,717.9,547.3,720.1,545.2,722.3z"/>
	<path d="M607.2,459.7c9.4,9.2,18.8,18.4,28.1,27.6c9.8,9.6,19.5,19.2,29.2,28.9c1,1,1.6,2.1,2.4,3.1c-2,17.5-7.1,34.3-12.4,51
		c-3.8-4.6-7.8-9-11.4-13.7c-17.5-23-36.3-45-56.3-65.8c-0.6-0.6-1-1.5-1.5-2.2C593.3,479.4,601.8,470.7,607.2,459.7z"/>
	<path d="M363,489c10.7-11.6,21.3-23.2,32-34.8c0.6,0.5,1.2,0.9,1.6,1.5c16.9,28.8,37,55.1,58.7,80.4c7.2,8.4,13.9,17.2,20.8,25.8
		c-9.1,10.5-18.2,20.9-27.2,31.4c-2.9-3.2-5.9-6.3-8.7-9.7c-24.1-29.3-48.2-58.7-72.3-88.1C366.3,493.5,364.7,491.2,363,489z"/>
	<path d="M474,358.1c9.5-10.9,17.8-22.8,24.8-35.4c5.5,8.3,10.9,16.7,16.5,24.9c15.8,23.5,33.5,45.4,51.8,67c1.8,2,3.4,4.1,5,6.2
		l0,0c0.1,0.3,0.2,0.6,0.2,0.9c-5.7,11.5-11.3,23.1-17,34.6c-1.6-1.5-3.4-2.8-4.9-4.6c-24.9-30-49.8-60.1-74.7-90.2
		C475.1,360.5,474.7,359.2,474,358.1z"/>
</g>
</svg>
