<?xml version="1.0" encoding="utf-8"?>
<svg version="1.1" id="Layer_1" xmlns="http://www.w3.org/2000/svg" xmlns:xlink="http://www.w3.org/1999/xlink" x="0px" y="0px"
	 viewBox="0 0 868.4 998.7" style="enable-background:new 0 0 868.4 998.7;" xml:space="preserve">
<style type="text/css">
	.st0{fill:#F2F3F3;}
	.st1{fill:#747474;}
</style>
<g>
	<path class="st0" d="M0,626c2.6-8.7,5.3-17.4,7.9-26.1c7-23.7,18.1-45.3,32.7-65.2c14.2-19.5,27.9-39.4,42.8-58.3
		c12.6-15.9,26.4-30.8,40.3-45.6c26.1-27.8,52.6-55.1,78.8-82.8c16.3-17.1,32.8-34,48.4-51.7c10.6-12.1,20.2-25.2,29.5-38.4
		c11.8-16.7,23.4-33.6,34-51c14.9-24.5,24.6-51.2,31.5-79c8.1-32.4,12.9-65.2,10.9-98.8c-0.5-8-0.2-16,0-24c0-1.8,0.8-3.5,1.2-5.3
		c2.3,0,4.7,0,7,0c19.7,21.6,37.5,44.6,51.9,70.2c8.3,14.6,13,30.4,18.1,46.2c-1.6,6-3.7,12-4.8,18.2c-5.5,29.8-6.3,59.6,0.3,89.4
		c1.7,7.6,3,15.2,4.4,22.9c-6.4,14.5-12.6,29.2-19.3,43.6c-3.5,7.6-8,14.8-12,22.2c-13.1-19.2-22.8-40.2-30.6-62.1
		c-5.4-15-9.8-30.3-14.6-45.5c-0.4-1.3-0.9-2.6-1.4-3.9c-1.2,0.9-2.7,1.5-3.4,2.6c-9.1,15.1-20,29.4-26.6,45.5
		c-11.1,26.7-19,54.4-22.9,83.4c-3.3,24.7-4.7,48.9,2.9,73.1c2.8,9,5.4,18.1,8.1,27.2c-15.4,16.8-30.8,33.5-46.2,50.3
		c-8.3-11.3-13.4-24.3-16.4-37.6c-2.4-10.4-1.8-21.5-2.7-32.2c-0.2-2-1-4-1.5-5.9c-2.1,1.1-4.8,1.6-6.3,3.3
		c-23.6,26.7-35,59.1-40.7,93.5c-2.8,16.6-2.3,33.8-3.4,50.7c-13.8,16.4-28.1,32.4-41.2,49.3c-14.3,18.6-26.5,38.7-36.6,60
		c-7.1,14.9-10.5,30.7-10.8,47.3c-0.2,7.5-1,14.9-1,22.4c0,9.7,2.7,18.6,9.6,26c1.3,1.4,2,3.5,3,5.2c-2.3,1.3-4.6,3.5-7,3.7
		c-17.8,1.6-34.7-2.3-51-9.4c-11.2-4.8-22.4-9.7-30.7-19c-16.7-18.5-25.8-40.4-29.2-64.9C2.2,670.2,1,665.1,0,660
		C0,648.7,0,637.3,0,626z"/>
	<path class="st1" d="M315.1,432.8c-2.7-9.1-5.3-18.2-8.1-27.2c-7.5-24.1-6.2-48.3-2.9-73.1c3.9-29,11.9-56.8,22.9-83.4
		c6.7-16.1,17.6-30.4,26.6-45.5c0.7-1.1,2.3-1.8,3.4-2.6c0.5,1.3,1,2.6,1.4,3.9c4.8,15.2,9.2,30.5,14.6,45.5
		c7.8,21.8,17.4,42.8,30.6,62c1.1,1.8,2.2,3.7,3.5,5.4c8.6,11.9,17.3,23.7,25.9,35.6c0.8,1.4,1.3,3,2.3,4.2
		c31,37.6,62.1,75.1,93.2,112.6c1.7,2.1,4,3.8,6.1,5.7c12.4,13.4,24.9,26.9,37.3,40.3c0.6,0.9,1.1,2,1.9,2.8
		c25.1,26,48.5,53.4,70.3,82.1c4.5,5.9,9.5,11.4,14.2,17.1c11.2,16.4,22.8,32.4,33.3,49.2c7.5,11.9,13.5,24.8,19.9,37.4
		c5,10,10.2,19.9,13.7,30.4c3.8,11.5,7.1,23.5,8.1,35.4c0.8,9-1,18.7-3.9,27.4c-4.3,13-9.3,26.2-16.4,38
		c-18.9,31.6-46,52.5-83.2,58.7c-6.7,1.1-13.5,1.8-20.3,2.2c-7.3,0.5-9.2-2.5-7.2-9.4c3.4-11.5,3.3-23.4,2.4-35.2
		c-0.5-7-2-13.8-3.2-20.7c-3.7-21.4-14.6-39.9-23.8-59.1c-2.7-5.5-6.1-10.7-9.1-16c-2.1-3.4-3.7-7.1-6.3-10
		c-20.5-22.7-41.2-45.4-62-67.9c-10.6-11.5-21.5-22.7-32.3-34.1c-10.8-12.2-21.5-24.5-32.3-36.7c-8.7-10.7-17-21.7-26-32.2
		c-27.1-31.5-52.2-64.4-73.3-100.3c-0.4-0.7-1.3-1.3-1.9-1.9c-3.6-6.9-7.5-13.6-10.9-20.6C320.5,446.3,317.9,439.5,315.1,432.8z"/>
	<path class="st1" d="M434.9,246.8c-1.5-7.6-2.7-15.3-4.4-22.9c-6.7-29.8-5.8-59.6-0.3-89.4c1.1-6.1,3.2-12.1,4.8-18.2
		c0.8-1.8,1.7-3.6,2.2-5.5c6.4-24.5,18-46.5,33.2-66.6c9.4-12.5,19.2-24.7,28.9-37c0.8-1,1.6-2.4,2.7-2.8c1.9-0.7,4.2-1.4,6-1
		c0.9,0.2,1.7,2.9,1.7,4.5c-0.1,12.7-0.6,25.3-0.7,38c-0.3,29.9,5.4,58.9,12.8,87.7c12.5,48.3,37.5,89.9,67,129.5
		c21.7,29.2,46.8,55,71.7,81.2c29.8,31.4,60.2,62.2,90,93.7c26.9,28.5,50.7,59.6,73.3,91.6c10.7,15.1,20.6,30.6,28.4,47.5
		c14.8,32.4,19.8,65.8,13.3,101.2c-3.4,18.6-10,35.5-20.1,51.2c-10.2,15.7-25.9,23.8-42.8,30.3c-14.2,5.4-28.6,8.8-43.9,7.8
		c-1.5-0.1-3.1-0.1-4.4-0.7c-2.7-1.2-4-2.8-1-5.5c7.4-6.5,10.7-15.2,10.4-24.5c-0.5-16.3-0.8-32.8-4-48.6
		c-2.5-12.7-7.9-25.1-14-36.6c-18-34.3-41.5-64.7-67.6-93.2c-1.3-1.5-3-2.7-4.4-4c-1-1.3-1.9-2.7-3-3.9
		c-12.1-12-24.3-24.1-36.5-36.1c-11.7-11.5-23.4-23-35.1-34.5c-14.5-15.9-28.9-31.7-43.4-47.6c-0.1-0.4-0.2-0.7-0.3-1.1l0,0
		c-2.1-2.6-4.2-5.2-6.3-7.7c-22.8-26.9-44.9-54.3-64.6-83.6c-6.9-10.3-13.7-20.7-20.6-31.1c-2.2-4.1-4.6-8.1-6.5-12.4
		C449.9,280.2,442.4,263.5,434.9,246.8z"/>
	<path class="st1" d="M197.8,554.8c1-16.9,0.6-34.1,3.4-50.7c5.8-34.3,17.1-66.7,40.7-93.5c1.5-1.7,4.2-2.2,6.3-3.3
		c0.5,2,1.4,3.9,1.5,5.9c0.9,10.8,0.3,21.8,2.7,32.2c3.1,13.4,8.2,26.3,16.4,37.6c6.5,12.8,15.9,23.4,25.7,33.7
		c2.1,2.7,4,5.6,6.2,8.2c30,36.6,60.1,73.3,90.2,109.9c3.4,4.2,7.2,8.1,10.8,12.1c10.7,12.7,21.3,25.4,32,38.1
		c4.4,5.4,8.4,11.1,13.2,16.1c16.9,17.7,32.9,36.1,45.8,57c10.1,16.3,19.4,33.2,29,49.8c2.8,7.5,5.7,14.9,8.2,22.5
		c6.6,19.8,8.5,40.2,7.5,61.1c-0.6,14-2.8,27.3-7.6,40.5c-6.3,17.3-16.8,31.4-31.1,42.6c-18.6,14.6-39.8,23.3-63.7,24.1
		c-1.6,0.1-3.2-0.6-4.8-0.9c-5.4-3.9-5.1-3.4,0.4-6.9c2.8-1.8,4.2-5.8,6.2-8.7c0.6-1.7,1.4-3.4,1.8-5.1c2.4-9-0.7-17.5-2.2-26.1
		c-2.1-14.6-6.9-28.4-13.9-41.3c-13.6-25-29.2-48.7-47.7-70.4c-9.2-10.7-17.8-21.9-26.7-32.8c-15.1-16.3-30.1-32.5-45.2-48.8
		c-1.6-2.3-3.1-4.6-4.8-6.8c-17-22.5-35-44.4-50.9-67.8c-14.3-21-27.1-43-35.3-67.4C205.6,595.8,199.5,575.8,197.8,554.8z"/>
	<path class="st0" d="M212.2,615.7c8.2,24.3,21,46.4,35.3,67.4c15.9,23.3,33.9,45.2,50.9,67.8c1.7,2.2,3.2,4.5,4.8,6.8
		c-11.7,20-22.4,40.6-28.9,62.9c-5.8,20-8.1,40.8-4.5,61.7c0.3,2,1,3.8,1.6,5.8c1.5,5.4-0.8,9.3-6.4,9c-9.8-0.4-19.7-0.8-29.2-2.7
		c-15.8-3.1-30.6-9.2-43.4-19c-22.6-17.3-39.4-38.9-48.2-66.4c-3.7-11.6-8.9-23-7.8-35.3c1.1-11.7,2.6-23.8,6.8-34.6
		c8.3-21.1,17.7-42,28.5-61.9C181,659.7,193,643.6,204,627C206.5,623.1,209.4,619.5,212.2,615.7z"/>
	<path class="st0" d="M348.3,806.4c8.9,11,17.5,22.1,26.7,32.8c18.5,21.7,34.1,45.4,47.7,70.4c7,12.9,11.8,26.7,13.9,41.3
		c-0.7,3.7-1.6,7.4-2.2,11.1c-1.1,6.9-0.8,13.7,2.5,20.1c-2,3-3.4,6.9-6.2,8.7c-5.5,3.5-5.8,3-0.4,6.9c-14,0.1-26.4-5.3-38.7-11.2
		c-22.5-10.7-39.2-27.3-49.1-50c-5.8-13.4-8.7-27.6-9.9-42.4c-1.6-19.7,0.7-38.9,4.8-57.8C339.7,826.1,344.6,816.3,348.3,806.4z"/>
	<path class="st0" d="M521.8,808c-9.7-16.6-19-33.4-29-49.8c-12.9-20.9-28.9-39.3-45.8-57c-4.8-5-8.8-10.7-13.2-16.1
		c11.4-13.5,22.9-27,34.3-40.6c10.8,11.3,21.7,22.6,32.3,34.1c20.8,22.5,41.4,45.2,62,67.9c2.6,2.9,4.2,6.7,6.3,10
		c-13,14.4-26,28.8-39.1,43.1C527,802.5,524.4,805.2,521.8,808z"/>
	<path class="st0" d="M599.2,480.3c11.7,11.5,23.4,23,35.1,34.5c12.2,12,24.3,24,36.5,36.1c1.2,1.2,2,2.6,3,3.9
		c-2.5,21.9-8.9,42.8-15.5,63.6c-4.8-5.7-9.7-11.2-14.2-17.1c-21.9-28.7-45.3-56.1-70.3-82.1c-0.8-0.8-1.3-1.9-1.9-2.8
		C581.8,504.9,592.4,494,599.2,480.3z"/>
	<path class="st0" d="M294.5,516.8c13.3-14.5,26.6-28.9,39.9-43.4c0.7,0.6,1.5,1.1,2,1.9c21.1,35.9,46.2,68.8,73.3,100.3
		c9,10.5,17.4,21.5,26,32.2c-11.3,13.1-22.7,26.1-34,39.2c-3.6-4-7.4-7.9-10.8-12.1c-30.1-36.6-60.1-73.2-90.2-109.9
		C298.6,522.4,296.6,519.6,294.5,516.8z"/>
	<path class="st0" d="M433,353.5c11.9-13.6,22.2-28.4,31-44.2c6.9,10.4,13.6,20.8,20.6,31.1c19.7,29.3,41.8,56.7,64.6,83.6
		c2.2,2.5,4.2,5.1,6.3,7.7c0,0,0,0,0,0c0.1,0.4,0.2,0.7,0.3,1.1c-7.1,14.4-14.1,28.8-21.2,43.2c-2-1.9-4.3-3.5-6.1-5.7
		c-31.1-37.5-62.2-75-93.2-112.6C434.4,356.5,433.8,354.9,433,353.5z"/>
</g>
</svg>
